<?xml version="1.0" encoding="UTF-8" standalone="no"?>
<!DOCTYPE svg PUBLIC "-//W3C//DTD SVG 20010904//EN"
              "http://www.w3.org/TR/2001/REC-SVG-20010904/DTD/svg10.dtd">

<svg xmlns="http://www.w3.org/2000/svg"
     width="352.858mm" height="352.858mm"
     viewBox="0 0 1000 1000">
  <path id="Selection"
        fill="#5CA781" stroke="black" stroke-width="0"
        d="M 248.00,97.53
           C 236.62,100.93 234.13,107.92 234.00,119.00
             234.00,119.00 234.00,225.00 234.00,225.00
             234.00,225.00 234.00,631.00 234.00,631.00
             234.02,642.28 236.84,652.31 250.00,653.66
             257.49,654.43 265.12,649.13 267.35,642.00
             268.11,639.59 268.00,636.53 268.00,634.00
             268.00,634.00 268.00,555.00 268.00,555.00
             268.00,555.00 268.00,225.00 268.00,225.00
             268.00,225.00 268.00,115.00 268.00,115.00
             267.85,102.86 260.27,95.64 248.00,97.53 Z
           M 193.00,110.53
           C 177.15,115.61 180.00,129.84 180.00,143.00
             180.00,143.00 180.00,235.00 180.00,235.00
             180.00,235.00 180.00,633.00 180.00,633.00
             180.02,643.30 183.14,652.43 195.00,653.66
             203.13,654.51 211.37,648.91 213.44,641.00
             214.08,638.56 214.00,635.53 214.00,633.00
             214.00,633.00 214.00,558.00 214.00,558.00
             214.00,558.00 214.00,235.00 214.00,235.00
             214.00,235.00 214.00,129.00 214.00,129.00
             213.84,116.06 206.17,108.40 193.00,110.53 Z
           M 519.00,112.77
           C 508.15,115.98 506.02,122.55 506.00,133.00
             506.00,133.00 506.00,237.00 506.00,237.00
             506.00,237.00 506.00,633.00 506.00,633.00
             506.01,636.54 505.88,639.60 507.13,643.00
             510.36,651.74 517.47,653.90 526.00,654.00
             526.00,654.00 558.00,654.00 558.00,654.00
             558.00,654.00 730.00,654.00 730.00,654.00
             732.68,653.99 735.46,654.15 738.00,653.15
             740.73,652.08 745.48,648.27 748.00,646.37
             754.16,641.75 762.51,635.21 768.00,629.96
             777.94,620.45 787.86,610.64 796.58,600.00
             796.58,600.00 812.29,580.00 812.29,580.00
             812.29,580.00 842.16,546.00 842.16,546.00
             842.16,546.00 916.16,462.00 916.16,462.00
             930.06,446.44 963.05,410.75 972.55,395.00
             985.26,373.93 994.96,342.71 995.00,318.00
             995.00,318.00 995.00,305.00 995.00,305.00
             994.89,296.06 992.11,284.82 990.21,276.00
             990.21,276.00 979.88,230.00 979.88,230.00
             975.33,210.23 970.18,174.51 958.84,159.00
             955.30,154.15 953.04,151.97 948.00,148.70
             916.85,128.53 886.74,154.82 861.00,170.81
             861.00,170.81 842.00,182.95 842.00,182.95
             842.00,182.95 817.00,198.81 817.00,198.81
             817.00,198.81 795.00,212.81 795.00,212.81
             792.97,214.07 788.18,217.54 786.00,217.56
             783.26,217.59 780.82,214.75 779.00,213.00
             779.00,213.00 767.00,202.27 767.00,202.27
             751.41,188.97 734.57,176.99 717.00,166.45
             670.60,138.61 617.83,120.59 564.00,114.84
             564.00,114.84 536.00,112.77 536.00,112.77
             529.75,112.97 525.30,111.50 519.00,112.77 Z
           M 464.00,116.53
           C 449.14,121.30 452.00,135.60 452.00,148.00
             452.00,148.00 452.00,240.00 452.00,240.00
             452.00,240.00 452.00,634.00 452.00,634.00
             452.02,644.63 454.93,652.42 467.00,653.66
             481.86,655.19 485.98,641.86 486.00,630.00
             486.00,630.00 486.00,559.00 486.00,559.00
             486.00,559.00 486.00,240.00 486.00,240.00
             486.00,240.00 486.00,140.00 486.00,140.00
             485.98,125.16 481.29,113.69 464.00,116.53 Z
           M 301.00,121.53
           C 286.14,126.30 289.00,140.60 289.00,153.00
             289.00,153.00 289.00,244.00 289.00,244.00
             289.00,244.00 289.00,634.00 289.00,634.00
             289.02,644.51 292.13,652.44 304.00,653.66
             318.86,655.19 322.98,641.86 323.00,630.00
             323.00,630.00 323.00,560.00 323.00,560.00
             323.00,560.00 323.00,244.00 323.00,244.00
             323.00,244.00 323.00,144.00 323.00,144.00
             322.98,129.18 317.76,118.77 301.00,121.53 Z
           M 409.00,128.64
           C 398.91,132.46 397.05,138.97 397.00,149.00
             397.00,149.00 397.00,249.00 397.00,249.00
             397.00,249.00 397.00,631.00 397.00,631.00
             397.02,642.28 399.84,652.32 413.00,653.66
             420.31,654.41 428.18,648.94 430.35,642.00
             431.11,639.59 431.00,636.53 431.00,634.00
             431.00,634.00 431.00,561.00 431.00,561.00
             431.00,561.00 431.00,249.00 431.00,249.00
             431.00,249.00 431.00,147.00 431.00,147.00
             430.98,132.71 423.36,125.75 409.00,128.64 Z
           M 359.00,150.53
           C 348.21,152.24 343.14,158.08 343.00,169.00
             343.00,169.00 343.00,264.00 343.00,264.00
             343.00,264.00 343.00,633.00 343.00,633.00
             343.02,643.42 346.02,652.42 358.00,653.66
             366.32,654.52 374.07,648.93 376.36,641.00
             377.11,638.43 377.00,635.65 377.00,633.00
             377.00,633.00 377.00,565.00 377.00,565.00
             377.00,565.00 377.00,267.00 377.00,267.00
             377.00,267.00 377.00,169.00 377.00,169.00
             376.86,157.81 370.63,150.33 359.00,150.53 Z
           M 558.00,316.00
           C 562.66,295.58 576.52,270.61 589.13,254.00
             608.23,228.83 634.06,209.20 663.00,196.72
             663.00,196.72 682.00,189.67 682.00,189.67
             684.40,188.89 688.39,187.34 690.82,188.32
             694.11,189.66 699.46,199.62 701.22,203.00
             709.32,218.59 713.28,236.52 713.96,254.00
             714.07,256.89 713.10,268.77 711.98,271.00
             710.30,274.33 705.96,277.62 703.00,279.87
             696.53,284.79 689.02,289.88 682.00,293.99
             659.01,307.44 624.79,318.68 598.00,319.00
             587.22,319.12 567.72,319.55 558.00,316.00 Z
           M 137.00,238.65
           C 128.00,242.43 126.04,247.87 126.00,257.00
             126.00,257.00 126.00,334.00 126.00,334.00
             126.00,334.00 126.00,634.00 126.00,634.00
             126.02,644.41 129.34,652.47 141.00,653.66
             155.24,655.12 159.98,642.70 160.00,631.00
             160.00,631.00 160.00,581.00 160.00,581.00
             160.00,581.00 160.00,334.00 160.00,334.00
             160.00,334.00 160.00,260.00 160.00,260.00
             159.98,244.50 153.85,235.16 137.00,238.65 Z
           M 85.00,418.36
           C 80.26,419.94 76.72,421.62 74.01,426.02
             71.63,429.85 71.06,435.56 71.00,440.00
             71.00,440.00 71.00,470.00 71.00,470.00
             71.00,470.00 71.00,630.00 71.00,630.00
             71.02,641.50 73.33,652.26 87.00,653.66
             94.61,654.44 102.14,649.29 104.35,642.00
             105.27,638.96 105.00,632.43 105.00,629.00
             105.00,629.00 105.00,605.00 105.00,605.00
             105.00,605.00 105.00,460.00 105.00,460.00
             105.00,460.00 105.00,443.00 105.00,443.00
             105.00,431.38 105.03,419.68 90.00,418.36
             87.95,418.00 86.96,418.23 85.00,418.36 Z
           M 30.00,557.53
           C 20.43,560.51 17.12,566.27 17.00,576.00
             17.00,576.00 17.00,633.00 17.00,633.00
             17.00,635.99 16.90,639.11 17.80,642.00
             20.23,649.75 28.96,655.23 37.00,653.47
             48.23,651.01 50.98,643.20 51.00,633.00
             51.00,633.00 51.00,577.00 51.00,577.00
             50.93,563.39 44.32,555.18 30.00,557.53 Z
           M 985.00,677.00
           C 978.48,675.15 968.87,675.97 962.00,676.00
             962.00,676.00 895.00,676.00 895.00,676.00
             892.41,676.00 889.47,675.87 887.00,676.70
             887.00,676.70 860.00,693.67 860.00,693.67
             860.00,693.67 788.00,741.00 788.00,741.00
             788.00,741.00 755.00,762.67 755.00,762.67
             751.69,764.87 745.10,770.15 741.04,769.08
             734.96,767.47 735.01,757.94 735.00,753.00
             735.00,753.00 735.00,691.00 735.00,691.00
             734.94,679.86 731.14,676.06 720.00,676.00
             720.00,676.00 691.00,676.00 691.00,676.00
             685.07,676.01 679.65,676.01 676.45,682.04
             674.29,686.11 675.00,696.11 675.00,701.00
             675.00,701.00 675.00,744.00 675.00,744.00
             675.00,744.00 675.00,968.00 675.00,968.00
             675.01,972.69 674.78,977.00 678.39,980.61
             681.47,983.69 684.92,983.94 689.00,984.00
             689.00,984.00 719.00,984.00 719.00,984.00
             725.47,983.99 730.50,983.56 733.83,977.00
             735.40,973.88 735.00,968.53 735.00,965.00
             735.00,965.00 735.00,940.00 735.00,940.00
             735.00,940.00 735.00,853.00 735.00,853.00
             735.00,850.50 734.80,847.33 736.02,845.09
             738.24,841.02 751.52,833.58 756.00,830.66
             761.07,827.35 769.97,820.36 776.00,820.37
             782.35,820.37 787.30,825.46 791.00,830.00
             791.00,830.00 811.80,856.00 811.80,856.00
             811.80,856.00 889.60,953.00 889.60,953.00
             889.60,953.00 906.40,974.00 906.40,974.00
             911.21,980.01 912.79,983.84 921.00,983.92
             921.00,983.92 973.00,983.92 973.00,983.92
             973.00,983.92 978.77,983.92 978.77,983.92
             987.79,982.07 981.60,973.91 978.77,970.00
             978.77,970.00 958.80,945.00 958.80,945.00
             958.80,945.00 867.80,831.00 867.80,831.00
             867.80,831.00 841.40,798.00 841.40,798.00
             837.74,793.40 833.21,788.20 835.59,781.93
             837.68,776.39 843.30,773.36 848.00,770.31
             848.00,770.31 870.00,755.67 870.00,755.67
             870.00,755.67 953.00,701.00 953.00,701.00
             953.00,701.00 973.00,687.69 973.00,687.69
             978.38,684.23 982.07,683.05 985.00,677.00 Z
           M 25.00,676.74
           C 17.48,680.70 17.01,684.20 17.00,692.00
             17.00,692.00 17.00,748.00 17.00,748.00
             17.00,748.00 17.00,968.00 17.00,968.00
             17.01,973.93 17.01,979.35 23.04,982.55
             27.11,984.71 37.11,984.00 42.00,984.00
             42.00,984.00 85.00,984.00 85.00,984.00
             85.00,984.00 309.00,984.00 309.00,984.00
             319.07,983.98 324.84,981.09 325.00,970.00
             325.00,970.00 325.00,946.00 325.00,946.00
             324.99,940.90 325.17,936.22 320.79,932.65
             317.51,929.98 313.97,930.02 310.00,930.00
             310.00,930.00 272.00,930.00 272.00,930.00
             272.00,930.00 99.00,930.00 99.00,930.00
             91.51,929.99 85.42,929.72 80.65,922.98
             77.24,918.18 78.00,912.57 78.00,907.00
             78.00,907.00 78.00,875.00 78.00,875.00
             78.02,862.31 83.08,857.16 96.00,857.00
             96.00,857.00 185.00,857.00 185.00,857.00
             187.44,857.00 190.73,857.13 193.00,856.26
             196.10,855.07 199.07,852.10 200.26,849.00
             201.26,846.39 201.00,840.96 201.00,838.00
             201.00,838.00 201.00,818.00 201.00,818.00
             200.94,806.78 197.22,803.06 186.00,803.00
             186.00,803.00 99.00,803.00 99.00,803.00
             86.96,802.98 78.19,799.82 78.00,786.00
             78.00,786.00 78.00,748.00 78.00,748.00
             78.00,745.48 77.89,742.40 78.65,740.00
             82.16,728.84 94.82,730.00 104.00,730.00
             104.00,730.00 132.00,730.00 132.00,730.00
             132.00,730.00 309.00,730.00 309.00,730.00
             311.44,730.00 314.73,730.13 317.00,729.26
             320.10,728.07 323.07,725.10 324.26,722.00
             325.58,718.57 325.01,697.21 325.00,692.00
             324.99,686.07 324.99,680.65 318.96,677.45
             314.89,675.29 304.89,676.00 300.00,676.00
             300.00,676.00 257.00,676.00 257.00,676.00
             257.00,676.00 100.00,676.00 100.00,676.00
             100.00,676.00 51.00,676.00 51.00,676.00
             44.47,676.00 30.65,675.37 25.00,676.74 Z
           M 399.00,893.00
           C 399.00,893.00 356.00,893.00 356.00,893.00
             353.04,893.00 349.79,892.85 347.02,894.01
             341.40,896.35 339.79,902.39 340.11,908.00
             340.57,916.34 348.14,935.55 352.43,943.00
             358.18,953.00 368.34,964.03 378.00,970.32
             390.52,978.47 413.06,983.98 428.00,984.00
             428.00,984.00 575.00,984.00 575.00,984.00
             622.51,983.44 659.93,948.06 660.00,900.00
             660.00,900.00 660.00,888.00 660.00,888.00
             659.96,864.21 649.03,837.04 630.58,821.63
             616.51,809.89 594.24,803.09 576.00,803.00
             576.00,803.00 445.00,803.00 445.00,803.00
             432.94,802.98 422.75,801.27 414.21,791.91
             405.58,782.45 405.11,767.95 407.08,756.00
             407.52,753.36 408.01,749.31 409.17,747.00
             411.00,743.34 418.55,735.77 422.00,733.59
             426.16,730.96 438.85,730.01 444.00,730.00
             444.00,730.00 559.00,730.00 559.00,730.00
             572.17,730.16 582.75,734.45 589.97,746.00
             594.23,752.80 591.45,763.03 602.00,766.35
             603.94,766.96 605.99,766.97 608.00,767.00
             608.00,767.00 638.00,767.00 638.00,767.00
             640.43,767.00 643.75,767.13 646.00,766.26
             657.76,761.71 652.47,745.75 650.12,737.00
             645.27,718.98 631.83,699.66 616.00,689.66
             616.00,689.66 605.00,684.31 605.00,684.31
             582.16,673.88 560.32,676.00 536.00,676.00
             536.00,676.00 431.00,676.00 431.00,676.00
             407.49,676.04 380.52,686.70 365.33,705.00
             360.26,711.10 352.13,726.31 349.77,734.00
             343.41,754.74 345.03,789.11 353.72,809.00
             356.91,816.31 366.11,829.27 372.04,834.57
             377.37,839.35 387.50,846.59 394.00,849.49
             414.55,858.65 439.05,857.00 461.00,857.00
             461.00,857.00 565.00,857.00 565.00,857.00
             571.64,857.01 581.40,858.40 586.83,862.47
             599.51,871.97 601.61,888.42 599.25,903.00
             598.86,905.41 598.20,909.88 597.30,912.00
             595.99,915.09 589.68,922.49 586.96,924.49
             581.87,928.25 570.31,929.99 564.00,930.00
             564.00,930.00 465.00,930.00 465.00,930.00
             453.33,930.00 427.73,931.30 418.00,926.67
             402.94,919.52 400.98,907.69 399.00,893.00 Z" />
</svg>
