<?xml version="1.0" encoding="UTF-8" standalone="no"?>
<!DOCTYPE svg PUBLIC "-//W3C//DTD SVG 20010904//EN"
              "http://www.w3.org/TR/2001/REC-SVG-20010904/DTD/svg10.dtd">

<svg xmlns="http://www.w3.org/2000/svg"
     width="34.6653mm" height="42.8685mm"
     viewBox="0 0 131 162">
  <path id="Selection #1"
        fill="#00E2FF" stroke="black" stroke-width="0"
        d="M 74.00,0.00
           C 74.00,0.00 65.88,32.00 65.88,32.00
             65.88,32.00 51.88,86.00 51.88,86.00
             47.60,102.32 44.82,120.96 35.10,135.00
             30.00,142.35 20.75,150.02 13.00,154.54
             8.97,156.88 2.76,158.38 0.00,162.00
             0.00,162.00 67.00,162.00 67.00,162.00
             65.50,160.27 61.84,156.85 61.17,155.03
             59.89,151.57 63.54,150.05 66.00,148.76
             73.29,144.94 75.66,145.45 78.00,137.00
             78.50,134.47 78.95,132.57 78.00,130.00
             76.47,124.63 69.92,119.35 72.70,115.31
             74.72,112.39 81.67,112.14 85.00,111.37
             89.71,110.27 91.56,108.18 93.79,104.00
             98.45,95.81 89.96,88.28 93.79,83.31
             97.51,78.22 107.26,85.05 114.00,81.10
             116.52,79.62 119.91,76.74 120.71,73.83
             121.75,69.99 120.10,58.23 125.15,57.11
             126.66,56.78 129.44,57.64 131.00,58.00
             131.00,58.00 131.00,0.00 131.00,0.00
             131.00,0.00 74.00,0.00 74.00,0.00 Z
           M 85.00,161.00
           C 85.00,161.00 102.00,162.00 102.00,162.00
             102.00,162.00 131.00,162.00 131.00,162.00
             131.00,162.00 131.00,84.00 131.00,84.00
             123.35,87.00 116.11,94.76 110.92,101.00
             94.20,121.11 89.56,135.94 85.00,161.00 Z" />
</svg>
