<?xml version="1.0" encoding="UTF-8" standalone="no"?>
<!DOCTYPE svg PUBLIC "-//W3C//DTD SVG 20010904//EN"
              "http://www.w3.org/TR/2001/REC-SVG-20010904/DTD/svg10.dtd">

<svg xmlns="http://www.w3.org/2000/svg"
     width="106.596mm" height="108.12mm"
     viewBox="0 0 1259 1277">
  <path id="Selection"
        fill="#DB6F20" stroke="white" stroke-width="8"
        d="M 628.00,0.00
           C 628.00,0.00 598.00,38.00 598.00,38.00
             598.00,38.00 543.00,107.00 543.00,107.00
             543.00,107.00 386.80,303.00 386.80,303.00
             386.80,303.00 319.80,387.00 319.80,387.00
             319.80,387.00 300.60,411.00 300.60,411.00
             300.60,411.00 292.14,423.00 292.14,423.00
             292.14,423.00 293.87,435.00 293.87,435.00
             293.87,435.00 299.35,459.00 299.35,459.00
             299.35,459.00 312.58,517.00 312.58,517.00
             312.58,517.00 320.00,548.00 320.00,548.00
             320.00,548.00 334.00,532.00 334.00,532.00
             334.00,532.00 357.00,503.00 357.00,503.00
             357.00,503.00 431.20,410.00 431.20,410.00
             431.20,410.00 562.80,245.00 562.80,245.00
             562.80,245.00 605.00,192.00 605.00,192.00
             605.00,192.00 628.00,162.00 628.00,162.00
             628.00,162.00 630.00,162.00 630.00,162.00
             630.00,162.00 664.88,207.00 664.88,207.00
             664.88,207.00 677.09,220.40 677.09,220.40
             677.09,220.40 684.00,221.00 684.00,221.00
             684.00,221.00 805.00,221.00 805.00,221.00
             805.00,221.00 787.60,198.00 787.60,198.00
             787.60,198.00 758.80,162.00 758.80,162.00
             758.80,162.00 665.58,45.00 665.58,45.00
             665.58,45.00 630.00,0.00 630.00,0.00
             630.00,0.00 628.00,0.00 628.00,0.00 Z
           M 174.00,212.13
           C 174.00,212.13 405.00,212.13 405.00,212.13
             405.00,212.13 417.71,212.13 417.71,212.13
             417.71,212.13 429.00,200.00 429.00,200.00
             429.00,200.00 455.20,167.00 455.20,167.00
             455.20,167.00 531.00,72.00 531.00,72.00
             531.00,72.00 572.00,20.00 572.00,20.00
             460.43,29.04 343.45,74.14 254.00,141.13
             234.02,156.09 215.25,171.91 197.00,188.91
             189.45,195.94 179.99,203.63 174.00,212.13 Z
           M 686.00,20.00
           C 686.00,20.00 726.20,71.00 726.20,71.00
             726.20,71.00 802.00,166.00 802.00,166.00
             802.00,166.00 828.20,199.00 828.20,199.00
             837.51,210.81 832.81,211.98 844.00,212.00
             844.00,212.00 1085.00,212.00 1085.00,212.00
             1079.01,203.63 1069.55,195.94 1062.00,188.91
             1043.75,171.91 1024.98,156.09 1005.00,141.13
             939.29,91.92 861.55,56.01 782.00,36.13
             756.28,29.70 712.02,21.20 686.00,20.00 Z
           M 125.00,243.00
           C 125.00,243.00 136.12,294.00 136.12,294.00
             136.12,294.00 154.12,373.00 154.12,373.00
             154.12,373.00 209.35,615.00 209.35,615.00
             209.35,615.00 233.58,721.00 233.58,721.00
             233.58,721.00 240.79,753.00 240.79,753.00
             240.79,753.00 245.16,769.61 245.16,769.61
             245.16,769.61 254.00,775.25 254.00,775.25
             254.00,775.25 275.00,785.26 275.00,785.26
             275.00,785.26 329.00,811.26 329.00,811.26
             329.00,811.26 361.00,826.00 361.00,826.00
             361.00,826.00 343.42,748.00 343.42,748.00
             343.42,748.00 301.65,565.00 301.65,565.00
             301.65,565.00 267.65,416.00 267.65,416.00
             267.65,416.00 251.00,344.00 251.00,344.00
             251.00,344.00 319.00,344.00 319.00,344.00
             319.00,344.00 326.91,342.98 326.91,342.98
             326.91,342.98 345.60,321.00 345.60,321.00
             345.60,321.00 384.60,272.00 384.60,272.00
             384.60,272.00 407.00,243.00 407.00,243.00
             407.00,243.00 125.00,243.00 125.00,243.00 Z
           M 511.00,344.00
           C 511.00,344.00 1007.00,344.00 1007.00,344.00
             1007.00,344.00 995.12,395.00 995.12,395.00
             995.12,395.00 990.90,418.00 990.90,418.00
             990.90,418.00 997.80,428.00 997.80,428.00
             997.80,428.00 1013.60,448.00 1013.60,448.00
             1013.60,448.00 1070.00,519.00 1070.00,519.00
             1070.00,519.00 1077.88,487.00 1077.88,487.00
             1077.88,487.00 1093.42,419.00 1093.42,419.00
             1093.42,419.00 1121.42,296.00 1121.42,296.00
             1121.42,296.00 1133.00,243.00 1133.00,243.00
             1133.00,243.00 599.00,243.00 599.00,243.00
             599.00,243.00 591.29,244.02 591.29,244.02
             591.29,244.02 584.00,252.00 584.00,252.00
             584.00,252.00 572.00,267.00 572.00,267.00
             572.00,267.00 533.80,315.00 533.80,315.00
             533.80,315.00 511.00,344.00 511.00,344.00 Z
           M 1153.00,298.00
           C 1153.00,298.00 1143.42,340.00 1143.42,340.00
             1143.42,340.00 1113.58,471.00 1113.58,471.00
             1113.58,471.00 1103.12,517.00 1103.12,517.00
             1103.12,517.00 1098.24,536.00 1098.24,536.00
             1098.24,536.00 1110.60,553.00 1110.60,553.00
             1110.60,553.00 1140.80,591.00 1140.80,591.00
             1140.80,591.00 1213.40,682.00 1213.40,682.00
             1213.40,682.00 1253.00,732.00 1253.00,732.00
             1255.16,727.31 1255.58,717.51 1256.16,712.00
             1256.16,712.00 1258.09,687.00 1258.09,687.00
             1258.09,687.00 1259.00,676.00 1259.00,676.00
             1259.00,676.00 1259.00,620.00 1259.00,620.00
             1259.00,620.00 1258.09,608.00 1258.09,608.00
             1258.09,608.00 1253.13,558.00 1253.13,558.00
             1245.00,499.59 1227.86,440.61 1203.31,387.00
             1193.43,365.43 1182.61,344.36 1170.40,324.00
             1166.04,316.74 1158.85,303.43 1153.00,298.00 Z
           M 104.00,299.00
           C 104.00,299.00 84.42,331.00 84.42,331.00
             72.81,351.01 62.26,371.86 52.86,393.00
             30.05,444.28 13.61,502.42 5.87,558.00
             5.87,558.00 0.91,608.00 0.91,608.00
             0.91,608.00 0.00,618.00 0.00,618.00
             -0.39,651.77 -0.86,697.28 5.00,730.00
             10.17,725.97 14.11,720.12 18.20,715.00
             18.20,715.00 39.00,689.00 39.00,689.00
             39.00,689.00 118.80,589.00 118.80,589.00
             118.80,589.00 142.60,559.00 142.60,559.00
             148.42,551.72 152.45,545.72 160.00,540.00
             160.00,540.00 146.42,480.00 146.42,480.00
             146.42,480.00 120.88,368.00 120.88,368.00
             120.88,368.00 109.88,320.00 109.88,320.00
             108.48,314.09 107.21,303.73 104.00,299.00 Z
           M 627.00,354.46
           C 617.21,355.69 612.67,355.13 602.00,357.65
             582.48,362.27 562.13,373.70 548.17,388.09
             504.68,432.88 504.68,504.12 548.17,548.91
             555.35,556.31 568.71,565.98 578.00,570.63
             597.75,580.53 620.17,583.95 642.00,581.83
             656.66,580.41 673.40,574.75 686.00,567.20
             699.14,559.32 709.81,550.24 719.10,538.00
             756.22,489.10 748.14,419.55 701.00,380.28
             690.48,371.53 678.96,365.03 666.00,360.67
             654.45,356.78 639.18,353.84 627.00,354.46 Z
           M 792.00,365.00
           C 792.00,365.00 802.00,379.00 802.00,379.00
             802.00,379.00 820.40,402.00 820.40,402.00
             820.40,402.00 879.40,476.00 879.40,476.00
             879.40,476.00 1023.00,656.00 1023.00,656.00
             1023.00,656.00 1072.40,718.00 1072.40,718.00
             1072.40,718.00 1100.00,753.00 1100.00,753.00
             1093.95,754.73 1084.97,759.79 1079.00,762.75
             1079.00,762.75 1050.00,776.74 1050.00,776.74
             1045.84,778.75 1034.33,783.02 1031.98,786.39
             1030.76,788.15 1028.99,796.46 1028.42,799.00
             1028.42,799.00 1022.58,825.00 1022.58,825.00
             1022.58,825.00 1009.35,883.00 1009.35,883.00
             1009.35,883.00 1003.00,911.00 1003.00,911.00
             1003.00,911.00 1029.00,899.25 1029.00,899.25
             1029.00,899.25 1070.00,879.31 1070.00,879.31
             1070.00,879.31 1124.00,853.26 1124.00,853.26
             1124.00,853.26 1214.00,810.22 1214.00,810.22
             1214.00,810.22 1258.00,789.00 1258.00,789.00
             1258.00,789.00 1229.40,752.00 1229.40,752.00
             1229.40,752.00 1175.00,684.00 1175.00,684.00
             1175.00,684.00 1000.40,465.00 1000.40,465.00
             1000.40,465.00 939.80,389.00 939.80,389.00
             939.80,389.00 927.00,373.00 927.00,373.00
             927.00,373.00 919.71,365.57 919.71,365.57
             919.71,365.57 913.00,365.00 913.00,365.00
             913.00,365.00 792.00,365.00 792.00,365.00 Z
           M 176.00,567.00
           C 176.00,567.00 130.00,625.00 130.00,625.00
             130.00,625.00 53.40,721.00 53.40,721.00
             53.40,721.00 20.00,763.00 20.00,763.00
             20.00,763.00 0.00,789.00 0.00,789.00
             0.00,789.00 43.00,809.74 43.00,809.74
             43.00,809.74 124.00,848.74 124.00,848.74
             124.00,848.74 350.00,957.26 350.00,957.26
             350.00,957.26 445.00,1003.25 445.00,1003.25
             445.00,1003.25 473.00,1016.75 473.00,1016.75
             473.00,1016.75 488.00,1022.58 488.00,1022.58
             488.00,1022.58 498.00,1019.00 498.00,1019.00
             498.00,1019.00 522.00,1007.31 522.00,1007.31
             522.00,1007.31 583.00,978.22 583.00,978.22
             583.00,978.22 604.00,968.00 604.00,968.00
             604.00,968.00 586.00,958.74 586.00,958.74
             586.00,958.74 551.00,941.75 551.00,941.75
             551.00,941.75 505.00,919.74 505.00,919.74
             505.00,919.74 425.00,881.22 425.00,881.22
             425.00,881.22 378.00,858.26 378.00,858.26
             378.00,858.26 289.00,815.74 289.00,815.74
             289.00,815.74 235.00,789.69 235.00,789.69
             235.00,789.69 181.00,763.69 181.00,763.69
             181.00,763.69 158.00,753.00 158.00,753.00
             158.00,753.00 191.20,711.00 191.20,711.00
             191.20,711.00 204.35,693.00 204.35,693.00
             204.35,693.00 202.37,680.00 202.37,680.00
             202.37,680.00 197.13,657.00 197.13,657.00
             197.13,657.00 183.42,597.00 183.42,597.00
             183.42,597.00 176.00,567.00 176.00,567.00 Z
           M 949.00,598.00
           C 949.00,598.00 940.58,634.00 940.58,634.00
             940.58,634.00 927.35,692.00 927.35,692.00
             927.35,692.00 885.58,875.00 885.58,875.00
             885.58,875.00 853.58,1015.00 853.58,1015.00
             853.58,1015.00 839.00,1080.00 839.00,1080.00
             839.00,1080.00 792.00,1057.75 792.00,1057.75
             792.00,1057.75 770.00,1048.42 770.00,1048.42
             770.00,1048.42 758.00,1053.22 758.00,1053.22
             758.00,1053.22 734.00,1064.75 734.00,1064.75
             734.00,1064.75 693.00,1084.26 693.00,1084.26
             693.00,1084.26 654.00,1103.00 654.00,1103.00
             654.00,1103.00 684.00,1118.25 684.00,1118.25
             684.00,1118.25 756.00,1152.78 756.00,1152.78
             756.00,1152.78 865.00,1205.31 865.00,1205.31
             865.00,1205.31 909.00,1226.00 909.00,1226.00
             909.00,1226.00 914.42,1203.00 914.42,1203.00
             914.42,1203.00 922.42,1168.00 922.42,1168.00
             922.42,1168.00 940.42,1089.00 940.42,1089.00
             940.42,1089.00 993.65,856.00 993.65,856.00
             993.65,856.00 1019.42,743.00 1019.42,743.00
             1019.42,743.00 1026.35,713.00 1026.35,713.00
             1026.35,713.00 1028.95,699.00 1028.95,699.00
             1028.95,699.00 1022.40,689.00 1022.40,689.00
             1022.40,689.00 1008.20,671.00 1008.20,671.00
             1008.20,671.00 969.80,623.00 969.80,623.00
             969.80,623.00 949.00,598.00 949.00,598.00 Z
           M 472.00,637.46
           C 462.21,638.69 457.67,638.13 447.00,640.65
             427.48,645.27 407.13,656.70 393.17,671.09
             349.68,715.88 349.68,787.12 393.17,831.91
             400.35,839.31 413.71,848.98 423.00,853.63
             442.75,863.53 465.17,866.95 487.00,864.83
             501.66,863.41 518.40,857.75 531.00,850.20
             544.14,842.32 554.81,833.24 564.10,821.00
             601.22,772.10 593.14,702.55 546.00,663.28
             535.48,654.53 523.96,648.03 511.00,643.67
             499.45,639.78 484.18,636.84 472.00,637.46 Z
           M 782.00,637.46
           C 772.21,638.69 767.67,638.13 757.00,640.65
             737.48,645.27 717.13,656.70 703.17,671.09
             659.68,715.88 659.68,787.12 703.17,831.91
             710.35,839.31 723.71,848.98 733.00,853.63
             752.75,863.53 775.17,866.95 797.00,864.83
             811.66,863.41 828.40,857.75 841.00,850.20
             854.14,842.32 864.81,833.24 874.10,821.00
             911.22,772.10 903.14,702.55 856.00,663.28
             845.48,654.53 833.96,648.03 821.00,643.67
             809.45,639.78 794.18,636.84 782.00,637.46 Z
           M 1229.00,837.00
           C 1229.00,837.00 1171.00,865.26 1171.00,865.26
             1171.00,865.26 1071.00,913.74 1071.00,913.74
             1071.00,913.74 1024.00,936.25 1024.00,936.25
             1024.00,936.25 1006.72,943.82 1006.72,943.82
             1006.72,943.82 1001.58,962.00 1001.58,962.00
             1001.58,962.00 990.79,1009.00 990.79,1009.00
             990.79,1009.00 964.12,1126.00 964.12,1126.00
             964.12,1126.00 950.00,1190.00 950.00,1190.00
             972.70,1177.85 1004.68,1154.66 1025.00,1138.40
             1093.07,1083.95 1151.20,1013.09 1190.25,935.00
             1201.99,911.52 1212.97,887.81 1221.66,863.00
             1223.66,857.27 1230.42,842.24 1229.00,837.00 Z
           M 29.00,838.00
           C 29.00,838.00 39.58,869.00 39.58,869.00
             47.09,888.92 55.23,907.95 64.75,927.00
             102.49,1002.47 152.81,1069.26 217.00,1124.27
             236.14,1140.67 256.02,1156.01 277.00,1170.00
             285.83,1175.89 298.59,1184.80 308.00,1189.00
             308.00,1189.00 293.88,1126.00 293.88,1126.00
             293.88,1126.00 269.42,1019.00 269.42,1019.00
             269.42,1019.00 257.37,966.00 257.37,966.00
             257.37,966.00 255.09,954.00 255.09,954.00
             255.09,954.00 254.01,946.63 254.01,946.63
             254.01,946.63 236.00,937.25 236.00,937.25
             236.00,937.25 212.00,925.74 212.00,925.74
             212.00,925.74 189.00,914.58 189.00,914.58
             189.00,914.58 168.00,904.26 168.00,904.26
             168.00,904.26 139.00,890.26 139.00,890.26
             139.00,890.26 76.00,860.22 76.00,860.22
             76.00,860.22 29.00,838.00 29.00,838.00 Z
           M 419.00,1080.00
           C 419.00,1080.00 407.37,1028.00 407.37,1028.00
             407.37,1028.00 402.07,1007.21 402.07,1007.21
             402.07,1007.21 392.00,1001.22 392.00,1001.22
             392.00,1001.22 371.00,990.86 371.00,990.86
             371.00,990.86 312.00,962.69 312.00,962.69
             312.00,962.69 286.00,951.00 286.00,951.00
             286.00,951.00 296.58,997.00 296.58,997.00
             296.58,997.00 322.35,1110.00 322.35,1110.00
             322.35,1110.00 338.58,1181.00 338.58,1181.00
             338.58,1181.00 349.00,1226.00 349.00,1226.00
             349.00,1226.00 385.00,1209.25 385.00,1209.25
             385.00,1209.25 426.00,1189.74 426.00,1189.74
             426.00,1189.74 447.00,1179.31 447.00,1179.31
             447.00,1179.31 526.00,1141.26 526.00,1141.26
             526.00,1141.26 644.00,1084.74 644.00,1084.74
             644.00,1084.74 690.00,1062.31 690.00,1062.31
             690.00,1062.31 742.00,1037.26 742.00,1037.26
             742.00,1037.26 794.00,1012.25 794.00,1012.25
             794.00,1012.25 823.00,998.26 823.00,998.26
             823.00,998.26 836.27,991.37 836.27,991.37
             836.27,991.37 839.79,980.00 839.79,980.00
             839.79,980.00 845.42,955.00 845.42,955.00
             845.42,955.00 858.35,899.00 858.35,899.00
             858.35,899.00 866.00,866.00 866.00,866.00
             866.00,866.00 832.00,881.69 832.00,881.69
             832.00,881.69 751.00,920.74 751.00,920.74
             751.00,920.74 633.00,977.26 633.00,977.26
             633.00,977.26 526.00,1028.78 526.00,1028.78
             526.00,1028.78 446.00,1067.31 446.00,1067.31
             446.00,1067.31 419.00,1080.00 419.00,1080.00 Z
           M 403.00,1235.00
           C 408.62,1238.46 435.40,1247.20 443.00,1249.42
             467.52,1256.59 491.84,1262.89 517.00,1267.42
             596.64,1281.79 681.80,1280.62 761.00,1263.79
             781.52,1259.43 802.02,1254.04 822.00,1247.66
             822.00,1247.66 855.00,1236.00 855.00,1236.00
             855.00,1236.00 837.00,1226.69 837.00,1226.69
             837.00,1226.69 806.00,1211.75 806.00,1211.75
             806.00,1211.75 688.00,1154.75 688.00,1154.75
             688.00,1154.75 645.00,1134.24 645.00,1134.24
             645.00,1134.24 629.00,1126.78 629.00,1126.78
             629.00,1126.78 609.00,1136.14 609.00,1136.14
             609.00,1136.14 558.00,1160.75 558.00,1160.75
             558.00,1160.75 465.00,1205.26 465.00,1205.26
             465.00,1205.26 403.00,1235.00 403.00,1235.00 Z" />
</svg>
